#tb 0: 1/25
0,          0,          0,        1,   152064, 0xb787afe4
0,          1,          1,        1,   152064, 0x21f0e774
0,          2,          2,        1,   152064, 0x5704de73
0,          3,          3,        1,   152064, 0xe80907da
0,          4,          4,        1,   152064, 0xbaed9048
